<svg width="17" height="18" viewBox="0 0 17 18" fill="none" xmlns="http://www.w3.org/2000/svg">
<path fill-rule="evenodd" clip-rule="evenodd" d="M3.54199 4.04167C3.15079 4.04167 2.83366 4.3588 2.83366 4.75V14.6667C2.83366 15.0579 3.15079 15.375 3.54199 15.375H13.4587C13.8499 15.375 14.167 15.0579 14.167 14.6667V4.75C14.167 4.3588 13.8499 4.04167 13.4587 4.04167H3.54199ZM1.41699 4.75C1.41699 3.57639 2.36839 2.625 3.54199 2.625H13.4587C14.6323 2.625 15.5837 3.57639 15.5837 4.75V14.6667C15.5837 15.8403 14.6323 16.7917 13.4587 16.7917H3.54199C2.36839 16.7917 1.41699 15.8403 1.41699 14.6667V4.75Z" fill="black"/>
<path fill-rule="evenodd" clip-rule="evenodd" d="M11.3333 1.20825C11.7245 1.20825 12.0417 1.52538 12.0417 1.91659V4.74992C12.0417 5.14112 11.7245 5.45825 11.3333 5.45825C10.9421 5.45825 10.625 5.14112 10.625 4.74992V1.91659C10.625 1.52538 10.9421 1.20825 11.3333 1.20825Z" fill="black"/>
<path fill-rule="evenodd" clip-rule="evenodd" d="M5.66634 1.20825C6.05754 1.20825 6.37467 1.52538 6.37467 1.91659V4.74992C6.37467 5.14112 6.05754 5.45825 5.66634 5.45825C5.27514 5.45825 4.95801 5.14112 4.95801 4.74992V1.91659C4.95801 1.52538 5.27514 1.20825 5.66634 1.20825Z" fill="black"/>
<path fill-rule="evenodd" clip-rule="evenodd" d="M1.41699 7.58333C1.41699 7.19213 1.73412 6.875 2.12533 6.875H14.8753C15.2665 6.875 15.5837 7.19213 15.5837 7.58333C15.5837 7.97453 15.2665 8.29167 14.8753 8.29167H2.12533C1.73412 8.29167 1.41699 7.97453 1.41699 7.58333Z" fill="black"/>
</svg>
