<svg width="40" height="42" viewBox="0 0 40 42" fill="none" xmlns="http://www.w3.org/2000/svg">
  <g filter="url(#filter0_d_153_5588)">
  <rect width="40" height="40" rx="20" fill="#2F353B"/>
  <path d="M21.0399 19.9991L26.3134 13.7131C26.4018 13.6087 26.3274 13.45 26.1908 13.45H24.5877C24.4933 13.45 24.4029 13.4921 24.3406 13.5645L19.9913 18.7495L15.642 13.5645C15.5817 13.4921 15.4913 13.45 15.3949 13.45H13.7917C13.6551 13.45 13.5808 13.6087 13.6692 13.7131L18.9426 19.9991L13.6692 26.285C13.6494 26.3083 13.6367 26.3368 13.6326 26.367C13.6285 26.3973 13.6332 26.4282 13.6461 26.4559C13.659 26.4836 13.6796 26.507 13.7054 26.5234C13.7312 26.5397 13.7612 26.5483 13.7917 26.5482H15.3949C15.4893 26.5482 15.5797 26.506 15.642 26.4337L19.9913 21.2486L24.3406 26.4337C24.4009 26.506 24.4913 26.5482 24.5877 26.5482H26.1908C26.3274 26.5482 26.4018 26.3895 26.3134 26.285L21.0399 19.9991Z" fill="white"/>
  <rect x="0.5" y="0.5" width="39" height="39" rx="19.5" stroke="#E22C38"/>
  </g>
  <defs>
  <filter id="filter0_d_153_5588" x="0" y="0" width="40" height="42" filterUnits="userSpaceOnUse" color-interpolation-filters="sRGB">
  <feFlood flood-opacity="0" result="BackgroundImageFix"/>
  <feColorMatrix in="SourceAlpha" type="matrix" values="0 0 0 0 0 0 0 0 0 0 0 0 0 0 0 0 0 0 127 0" result="hardAlpha"/>
  <feOffset dy="2"/>
  <feColorMatrix type="matrix" values="0 0 0 0 0 0 0 0 0 0 0 0 0 0 0 0 0 0 0.016 0"/>
  <feBlend mode="normal" in2="BackgroundImageFix" result="effect1_dropShadow_153_5588"/>
  <feBlend mode="normal" in="SourceGraphic" in2="effect1_dropShadow_153_5588" result="shape"/>
  </filter>
  </defs>
  </svg>
