<svg width="29" height="29" viewBox="0 0 29 29" fill="none" xmlns="http://www.w3.org/2000/svg">
  <path fill-rule="evenodd" clip-rule="evenodd" d="M2.23164 4.60689C2.89989 3.93865 3.80622 3.56323 4.75125 3.56323H13.0655C13.7215 3.56323 14.2533 4.09501 14.2533 4.75099C14.2533 5.40697 13.7215 5.93874 13.0655 5.93874H4.75125C4.43624 5.93874 4.13413 6.06388 3.91138 6.28663C3.68864 6.50938 3.5635 6.81149 3.5635 7.1265V23.7551C3.5635 24.0701 3.68864 24.3722 3.91138 24.5949C4.13413 24.8177 4.43624 24.9428 4.75125 24.9428H21.3798C21.6948 24.9428 21.9969 24.8177 22.2197 24.5949C22.4424 24.3722 22.5676 24.0701 22.5676 23.7551V15.4408C22.5676 14.7848 23.0994 14.253 23.7553 14.253C24.4113 14.253 24.9431 14.7848 24.9431 15.4408V23.7551C24.9431 24.7001 24.5677 25.6064 23.8994 26.2747C23.2312 26.9429 22.3249 27.3183 21.3798 27.3183H4.75125C3.80622 27.3183 2.89989 26.9429 2.23164 26.2747C1.5634 25.6064 1.18799 24.7001 1.18799 23.7551V7.1265C1.18799 6.18146 1.5634 5.27513 2.23164 4.60689Z" fill="black"/>
  <path fill-rule="evenodd" clip-rule="evenodd" d="M23.7553 3.41921C23.4021 3.41921 23.0633 3.55953 22.8135 3.8093L11.7625 14.8603L11.1346 17.3717L13.646 16.7439L24.6971 5.69283C24.9468 5.44306 25.0871 5.10429 25.0871 4.75107C25.0871 4.39784 24.9468 4.05907 24.6971 3.8093C24.4473 3.55953 24.1085 3.41921 23.7553 3.41921ZM21.1338 2.12956C21.8291 1.4343 22.772 1.0437 23.7553 1.0437C24.7385 1.0437 25.6815 1.4343 26.3768 2.12956C27.0721 2.82483 27.4627 3.76781 27.4627 4.75107C27.4627 5.73432 27.0721 6.6773 26.3768 7.37257L15.0931 18.6562C14.9409 18.8085 14.7502 18.9165 14.5413 18.9687L9.79031 20.1564C9.38555 20.2576 8.95738 20.139 8.66236 19.844C8.36735 19.549 8.24875 19.1208 8.34994 18.7161L9.5377 13.965C9.58991 13.7562 9.6979 13.5655 9.85012 13.4132L21.1338 2.12956Z" fill="black"/>
  </svg>
