<svg width="21" height="20" viewBox="0 0 21 20" fill="none" xmlns="http://www.w3.org/2000/svg">
  <path d="M10.5 1.25C5.66797 1.25 1.75 5.16797 1.75 10C1.75 14.832 5.66797 18.75 10.5 18.75C15.332 18.75 19.25 14.832 19.25 10C19.25 5.16797 15.332 1.25 10.5 1.25ZM10.5 17.2656C6.48828 17.2656 3.23438 14.0117 3.23438 10C3.23438 5.98828 6.48828 2.73438 10.5 2.73438C14.5117 2.73438 17.7656 5.98828 17.7656 10C17.7656 14.0117 14.5117 17.2656 10.5 17.2656Z" fill="#E22C38"/>
  <path d="M9.56201 6.5625C9.56201 6.81114 9.66078 7.0496 9.8366 7.22541C10.0124 7.40123 10.2509 7.5 10.4995 7.5C10.7482 7.5 10.9866 7.40123 11.1624 7.22541C11.3382 7.0496 11.437 6.81114 11.437 6.5625C11.437 6.31386 11.3382 6.0754 11.1624 5.89959C10.9866 5.72377 10.7482 5.625 10.4995 5.625C10.2509 5.625 10.0124 5.72377 9.8366 5.89959C9.66078 6.0754 9.56201 6.31386 9.56201 6.5625ZM10.9683 8.75H10.0308C9.94482 8.75 9.87451 8.82031 9.87451 8.90625V14.2188C9.87451 14.3047 9.94482 14.375 10.0308 14.375H10.9683C11.0542 14.375 11.1245 14.3047 11.1245 14.2188V8.90625C11.1245 8.82031 11.0542 8.75 10.9683 8.75Z" fill="#E22C38"/>
  </svg>
