<svg width="25" height="25" viewBox="0 0 25 25" fill="none" xmlns="http://www.w3.org/2000/svg">
  <path d="M12.7493 2.10718C7.01003 2.10718 2.35645 6.76077 2.35645 12.5C2.35645 18.2393 7.01003 22.8929 12.7493 22.8929C18.4886 22.8929 23.1422 18.2393 23.1422 12.5C23.1422 6.76077 18.4886 2.10718 12.7493 2.10718ZM12.7493 21.1298C7.98436 21.1298 4.11952 17.265 4.11952 12.5C4.11952 7.7351 7.98436 3.87025 12.7493 3.87025C17.5142 3.87025 21.3791 7.7351 21.3791 12.5C21.3791 17.265 17.5142 21.1298 12.7493 21.1298Z" fill="white"/>
  <path d="M11.6353 8.41723C11.6353 8.71256 11.7526 8.99578 11.9614 9.20461C12.1702 9.41343 12.4535 9.53075 12.7488 9.53075C13.0441 9.53075 13.3273 9.41343 13.5362 9.20461C13.745 8.99578 13.8623 8.71256 13.8623 8.41723C13.8623 8.12191 13.745 7.83868 13.5362 7.62985C13.3273 7.42103 13.0441 7.30371 12.7488 7.30371C12.4535 7.30371 12.1702 7.42103 11.9614 7.62985C11.7526 7.83868 11.6353 8.12191 11.6353 8.41723V8.41723ZM13.3055 11.0154H12.192C12.0899 11.0154 12.0064 11.099 12.0064 11.201V17.511C12.0064 17.6131 12.0899 17.6966 12.192 17.6966H13.3055C13.4076 17.6966 13.4911 17.6131 13.4911 17.511V11.201C13.4911 11.099 13.4076 11.0154 13.3055 11.0154Z" fill="white"/>
  </svg>
