<svg xmlns="http://www.w3.org/2000/svg" width="179" height="85" viewBox="0 0 179 85" fill="none"><path d="M119.96 0.685486H128.871V83.629H119.96V0.685486Z" fill="white"></path><path d="M87.8095 2.41171C85.136 1.47612 82.3468 0.895551 79.5161 0.685486V83.629H87.8046V61.3674C94.0064 59.1931 99.3708 55.1938 103.163 49.917C106.956 44.6402 108.992 38.3437 108.992 31.8895C108.992 25.4354 106.956 19.1389 103.163 13.8621C99.3708 8.58525 94.0064 4.58598 87.8046 2.41171H87.8095ZM87.8095 52.5759V11.1607C91.7076 13.1059 94.9808 16.0697 97.2669 19.7243C99.553 23.3788 100.763 27.5818 100.763 31.8683C100.763 36.1548 99.553 40.3578 97.2669 44.0124C94.9808 47.667 91.7076 50.6308 87.8095 52.5759V52.5759Z" fill="white"></path><path d="M152.117 3.30989C149.487 2.17684 146.753 1.29795 143.952 0.685486V83.629C146.753 83.0169 149.487 82.138 152.117 81.0046C167.502 74.3755 178.226 59.4741 178.226 42.1549C178.226 24.8357 167.502 9.93899 152.117 3.3052V3.30989ZM152.117 72.183V12.1174C162.859 18.108 170.089 29.3146 170.089 42.1643C170.089 55.014 162.859 66.2065 152.117 72.2112V72.183Z" fill="white"></path><path d="M26.0441 6.49973C14.8389 15.6407 6.71363 27.9025 2.73815 41.6704C-1.23734 55.4383 -0.876578 70.0666 3.77292 83.629H12.4581C9.70391 76.6593 8.24365 69.2607 8.14667 61.7844H26.0249V83.6196H34.2742V0.685486C31.3888 2.43229 28.6322 4.37676 26.0249 6.50443L26.0441 6.49973ZM8.5347 54.1718C10.0511 40.3457 16.214 27.4109 26.0489 17.4126V54.1718H8.5347Z" fill="#E30613"></path><path d="M65.5351 52.409C64.2875 47.4019 61.634 42.8753 57.9004 39.3849V39.3849C55.3712 37.0244 53.5228 34.0034 52.5551 30.6485C52.2271 29.2519 52.0619 27.8207 52.0629 26.3845C52.0812 23.6145 52.6979 20.8826 53.869 18.3834C55.0401 15.8841 56.7369 13.679 58.8385 11.9249V11.9249C61.0351 10.1293 62.9716 8.66061 64.6017 7.56145L64.7689 7.44775C65.0429 7.26771 65.6327 6.865 65.6327 6.865L65.3354 6.04063L63.1435 0L62.6048 0.184772L60.3013 1.08021C50.6 5.36787 43.8708 14.7249 43.8708 25.5791C43.8715 27.9381 44.1951 30.2854 44.8322 32.5531C46.0798 37.5602 48.7333 42.0868 52.4669 45.5772V45.5772C54.9961 47.9377 56.8445 50.9587 57.8122 54.3136C58.1402 55.7102 58.3054 57.1414 58.3044 58.5776C58.2861 61.3476 57.6694 64.0795 56.4983 66.5787C55.3272 69.078 53.6304 71.2831 51.5288 73.0372V73.0372C49.3322 74.8328 47.3956 76.3015 45.7656 77.4006L45.5984 77.5144C45.3198 77.6944 44.7346 78.0971 44.7346 78.0971C44.7346 78.0971 44.8043 78.3529 45.0319 78.9215L47.2331 85L47.7718 84.8152C47.7718 84.8152 48.9746 84.3414 50.0613 83.9103C59.7626 79.6226 66.4918 70.2656 66.4918 59.4067C66.4948 57.04 66.1728 54.6845 65.5351 52.409Z" fill="white"></path></svg>