<svg width="239" height="253" viewBox="0 0 239 253" fill="none" xmlns="http://www.w3.org/2000/svg">
  <path d="M229.624 206.468C223.628 192.266 214.928 179.366 204.008 168.487C193.12 157.575 180.223 148.876 166.028 142.869C165.901 142.805 165.774 142.773 165.647 142.71C185.447 128.407 198.319 105.109 198.319 78.8241C198.319 35.2802 163.041 0 119.5 0C75.9591 0 40.6814 35.2802 40.6814 78.8241C40.6814 105.109 53.553 128.407 73.353 142.742C73.2258 142.805 73.0987 142.837 72.9716 142.9C58.7334 148.908 45.9571 157.521 34.9925 168.518C24.0821 179.406 15.3833 192.304 9.3764 206.5C3.47524 220.398 0.292612 235.298 0.000794733 250.394C-0.00768796 250.733 0.0518083 251.07 0.175779 251.386C0.29975 251.702 0.485687 251.99 0.722634 252.233C0.95958 252.476 1.24274 252.669 1.55543 252.801C1.86813 252.932 2.20402 253 2.54333 253H21.6124C23.0107 253 24.1231 251.888 24.1549 250.521C24.7905 225.984 34.6428 203.004 52.0592 185.586C70.0794 167.565 94.0111 157.648 119.5 157.648C144.989 157.648 168.921 167.565 186.941 185.586C204.357 203.004 214.209 225.984 214.845 250.521C214.877 251.919 215.989 253 217.388 253H236.457C236.796 253 237.132 252.932 237.445 252.801C237.757 252.669 238.04 252.476 238.277 252.233C238.514 251.99 238.7 251.702 238.824 251.386C238.948 251.07 239.008 250.733 238.999 250.394C238.681 235.201 235.535 220.421 229.624 206.468ZM119.5 133.492C104.912 133.492 91.1825 127.803 80.8534 117.473C70.5244 107.144 64.8355 93.4129 64.8355 78.8241C64.8355 64.2353 70.5244 50.5046 80.8534 40.1749C91.1825 29.8451 104.912 24.1558 119.5 24.1558C134.088 24.1558 147.817 29.8451 158.147 40.1749C168.476 50.5046 174.165 64.2353 174.165 78.8241C174.165 93.4129 168.476 107.144 158.147 117.473C147.817 127.803 134.088 133.492 119.5 133.492Z" fill="white"/>
  </svg>
